<svg width="45" height="45" viewBox="0 0 45 45" fill="none" xmlns="http://www.w3.org/2000/svg" transform="rotate(180)">
    <path d="M22.5 3.75C12.1687 3.75 3.75 12.1687 3.75 22.5C3.75 32.8313 12.1687 41.25 22.5 41.25C32.8313 41.25 41.25 32.8313 41.25 22.5C41.25 12.1687 32.8313 3.75 22.5 3.75ZM27.7312 23.4937L21.1125 30.1125C20.8313 30.3937 20.475 30.525 20.1187 30.525C19.7625 30.525 19.4062 30.3937 19.125 30.1125C18.5812 29.5687 18.5812 28.6687 19.125 28.125L24.75 22.5L19.125 16.875C18.5812 16.3313 18.5812 15.4313 19.125 14.8875C19.6687 14.3438 20.5688 14.3438 21.1125 14.8875L27.7312 21.5063C28.2937 22.05 28.2937 22.95 27.7312 23.4937Z" fill="#D1D1D1"/>
</svg> 