<svg width="15" height="15" viewBox="0 0 15 15" fill="none" xmlns="http://www.w3.org/2000/svg">
    <path d="M8.79802 1.07125L10.118 3.71125C10.298 4.07125 10.778 4.43125 11.178 4.49125L13.568 4.89125C15.098 5.15125 15.458 6.25125 14.358 7.35125L12.498 9.22125C12.188 9.53125 12.008 10.1413 12.108 10.5813L12.638 12.8913C13.058 14.7113 12.088 15.4213 10.478 14.4713L8.23802 13.1413C7.82802 12.9013 7.16802 12.9013 6.75802 13.1413L4.50802 14.4613C2.89802 15.4113 1.92802 14.7013 2.34802 12.8813L2.87802 10.5713C2.97802 10.1413 2.79802 9.53125 2.48802 9.21125L0.63802 7.36125C-0.46198 6.26125 -0.10198 5.15125 1.42802 4.90125L3.81802 4.50125C4.21802 4.43125 4.69802 4.08125 4.87802 3.72125L6.19802 1.08125C6.90802 -0.358747 8.08802 -0.358747 8.79802 1.07125Z" fill="#F3CC40"/>
</svg> 